/* XPM */
static char *result[] = {
/* columns rows colors chars-per-pixel */
"64 64 66 1 ",
"  c #E21A16",
". c #E31E19",
"X c #E3221D",
"o c #E32521",
"O c #E32A26",
"+ c #E32D29",
"@ c #E3322E",
"# c #E43632",
"$ c #E43935",
"% c #E43D39",
"& c #E3423E",
"* c #E44541",
"= c #E44A46",
"- c #E44E4A",
"; c #E4514D",
": c #E45551",
"> c #E45956",
", c #E45D5A",
"< c #E5625E",
"1 c #E56561",
"2 c #E56966",
"3 c #E66E6A",
"4 c #E6716E",
"5 c #E57572",
"6 c #E57A76",
"7 c #E57D79",
"8 c #E6817D",
"9 c #E68481",
"0 c #E78986",
"q c #E68E8A",
"w c #E88D8A",
"e c #E6928E",
"r c #E79592",
"t c #E99793",
"y c #E79B97",
"u c #E89C98",
"i c #E8A19E",
"p c #E8A6A2",
"a c #E9AAA6",
"s c #EAADAA",
"d c #E9B2AE",
"f c #EAB6B2",
"g c #EABAB6",
"h c #EABEBA",
"j c #EAC2BE",
"k c #EBC5C1",
"l c #EBC9C6",
"z c #EBCDCA",
"x c #ECD1CE",
"c c #ECD5D1",
"v c #ECD9D6",
"b c #EDDDDA",
"n c #EDE1DE",
"m c #EDE5E2",
"M c #EDE9E6",
"N c #EEEDEA",
"B c #F1EEEC",
"V c #EEF1EE",
"C c #F1F1EF",
"Z c #EEF5F2",
"A c #EFF8F5",
"S c #EFFFFD",
"D c #F2F3F1",
"F c #F4F9F7",
"G c #F6FFFE",
"H c #FFFFFF",
/* pixels */
"HHHHHHHHHHHHHHHHHHHHHHHHHHHHHHHHHHHHHHHHHHHHHHHHHHHHHHHHHHHHHHHH",
"HHHHHHHHHHHHHHHHHHHHHHHHHHHHHHHHHHHHHHHHHHHHHHHHHHHHHHHHHHHHHHHH",
"HHHHHHHHHHHHHHHHHHHHHHHHHHHHHHHHHHHHHHHHHHHHHHHHHHHHHHHHHHHHHHHH",
"HHHHHHHHHHHHHHHHHHHHHHHHHHHHHHHHHHHHHHHHHHHHHHHHHHHHHHHHHHHHHHHH",
"HHHHHHHHHHHHHHHHHHHHHHHHHHHHHHHGGGDGGGGGGDDHHHHHHHHHHHHHHHHHHHHH",
"HHHHHHHHHHHHHHHHHHHHHHHHHHHHHHB517M967758ZBHHHHHHHHHHHHHHHHHHHHH",
"HHHHHHHHHHHHHHHHHHHHHHHHHHHHHGZatp6OoOX+yqBHHHHHHHHHHHHHHHHHHHHH",
"HHHHHHHHHHHHHHHHHHHHHHHHHHHHF949N7 o+X%f5&CHHHHHHHHHHHHHHHHHHHHH",
"HHHHHHHHHHHHHHHHHHHHHHHHHHHH8X pZdfgfsa6.;ZHHHHHHHHHHHHHHHHHHHHH",
"HHHHHHHHHHHHHHHHHHHHHHHHHHG7X+dw48970GmOo*ZHHHHHHHHHHHHHHHHHHHHH",
"HHHHHHHHHHHHHHHHHHHHHHHHHC4 +f0+o+X+uqc@$kBHHHHHHHHHHHHHHHHHHHHH",
"HHHHHHHHHHHHHHHHHHHHHHHHGDfdg8+@$+%g5*k*pqBHHHHHHHHHHHHHHHHHHHHH",
"HHHHHHHHHHHHHHHHHHHHHHHG8<4N8.O+o%h6X=mvz*NHHHHHHHHHHHHHHHHHHHHH",
"HHHHHHHHHHHHHHHHHHHHHHG6o pZgjkjgf4OO=btk-BHHHHHHHHHHHHHHHHHHHHH",
"HHHHHHHHHHHHHHHHHHHHHD5Xoa7,3315GN#O*h>=k=NHHHHHHHHHHHHHHHHHHHHH",
"HHHHHHHHHHHHHHHHHHHHCVjjjFkfgggp5v$%h3X;MzVHHHHHHHHHHHHHHHHHHHHH",
"HHHHHHHHHHHHHHHHHHHHC514m713427b-l-d3OO;b8BHHHHHHHHHHHHHHHHHHHHH",
"HHHHHHHHHHHHHHHHHHHHD-.+x-X++o$z;vbn@o=h-*CHHHHHHHHHHHHHHHHHHHHH",
"HHHHHHHHHHHHHHHHHHHHZ:o$x:+##@*z:c0x#&g1X;VHHHHHHHHHHHHHHHHHHHHH",
"HHHHHHHHHHHHHHHHHHHHD;o@c:O@@+$nx:&l-vb+o-DHHHHHHHHHHHHHHHHHHHHH",
"HHHHHHHHHHHHHHHHHHHHCxzzBxzzlzcn2X&Mj7x@*cVHHHHHHHHHHHHHHHHHHHHH",
"HHHHHHHHHHHHHHHHHHHHC6,<><,2n42c%o-b,=l;d5BHHHHHHHHHHHHHHHHHHHHH",
"HHHHHHHHHHHHHHHHHHHHD-X+++O#x&@c&%k>X=mmz*NHHHHHHHHHHHHHHHHHHHHH",
"HHHHHHHHHHHHHHHHHHHHD;O###+%x*$z>h<OO:x7k;BHHHHHHHHHHHHHHHHHHHHH",
"HHHHHHHHHHHHHHHHHHHHD>@%#%#&c-$bnm#O;k*;l:NHHHHHHHHHHHHHHHHHHHHH",
"HHHHHHHHHHHHHHHHHHHHNcxxcxxcmcvb4x#=k>X-MvNHHHHHHHHHHHHHHHHHHHHH",
"HHHHHHHHHHHHHHHHHHHHD4=:b4-:-;1z;l,j>OO,z2BHHHHHHHHHHHHHHHHHHHHH",
"HHHHHHHHHHHHHHHHHHHHD-X@x;o+@O%z;bmb@o>k%=CHHHHHHHHHHHHHHHHHHHHH",
"HHHHHHHHHHHHHHHHHHHHD;o#x:O#@+&z<k4x#:l;X;VHHHHHHHHHHHHHHHHHHHHH",
"HHHHHHHHHHHHHHHHHHHHD<#*v<$*&%=mc&&z>bb+o,CHHHHHHHHHHHHHHHHHHHHH",
"HHHHHHHHHHHHHHHHHHHHNvcvnvcvbvbn:X&Nl1z+;bBHHHHHHHHHHHHHHHHHHHHH",
"HHHHHHHHHHHHHHHHHHHHD1&=*=*;v>;c&o>x*=z2h<BHHHHHHHHHHHHHHHHHHHHH",
"HHHHHHHHHHHHHHHHHHHHF;o@@@+$c*$x%-k=o*MMl=NHHHHHHHHHHHHHHHHHHHHH",
"HHHHHHHHHHHHHHHHHHHHD-o@@@O$x%#x2z-+O1k2k-CHHHHHHHHHHHHHHHHHHHHH",
"HHHHHHHHHHHHHHHHHHHHC2*-*-=:b,-bmn#O<k#;z1NHHHHHHHHHHHHHHHHHHHHH",
"HHHHHHHHHHHHHHHHHHHHBcxcnvxcvcbv,x$:k*o-NvBHHHHHHHHHHHHHHHHHHHHH",
"HHHHHHHHHHHHHHHHHHHHD,@*v<$%%%-z:z4z*++3g>NHHHHHHHHHHHHHHHHHHHHH",
"HHHHHHHHHHHHHHHHHHHHF;o@x;O#@O&z-nMv#o1h+=DHHHHHHHHHHHHHHHHHHHHH",
"HHHHHHHHHHHHHHHHHHHHD-X@x;o+@O%x5f,z#3c%o=NHHHHHHHHHHHHHHHHHHHHH",
"HHHHHHHHHHHHHHHHHHHHD4->b5:>;:<mz#*c2vv@O4DHHHHHHHHHHHHHHHHHHHHH",
"HHHHHHHHHHHHHHHHHHHHBcxcxcxcMcvb*o%Zj>l+<vVHHHHHHHHHHHHHHHHHHHHH",
"HHHHHHHHHHHHHHHHHHHHD:+#@$@&c=%c&o2h#-z8k;NHHHHHHHHHHHHHHHHHHHHH",
"HHHHHHHHHHHHHHHHHHHHD:O$##@%c*%x%,j%o*Nnk-VHHHHHHHHHHHHHHHHHHHHH",
"HHHHHHHHHHHHHHHHHHHHZ-.+++o#x%@x9v&O+6s>k=BHHHHHHHHHHHHHHHHHHHHH",
"HHHHHHHHHHHHHHHHHHHHC7<2,113m52bbb$O6hO;x7BHHHHHHHHHHHHHHHHHHHHH",
"HHHHHHHHHHHHHHHHHHHHBzkzBxllklcv;z#2h#o=VxBHHHHHHHHHHHHHHHHHHHHH",
"HHHHHHHHHHHHHHHHHHHHD-o#c:O@@O%z:z0v$O@8p=VHHHHHHHHHHHHHHHHHHHHH",
"HHHHHHHHHHHHHHHHHHHHZ:O#z:+#$+*z=mbv#o5fo-ZHHHHHHHHHHHHHHHHHHHHH",
"HHHHHHHHHHHHHHHHHHHHD=.+z=XOOo#c0p-z#9v@o*VHHHHHHHHHHHHHHHHHHHHH",
"HHHHHHHHHHHHHHHHHHHHC035Mw35247mjO*c9xv@O7DHHHHHHHHHHHHHHHHHHHHH",
"HHHHHHHHHHHHHHHHHHHHCljkgjklCllb$o%Zd=z+6GHHHHHHHHHHHHHHHHHHHHHH",
"HHHHHHHHHHHHHHHHHHHHD-X++Oo#c%@c*o9aO-x8FHHHHHHHHHHHHHHHHHHHHHHH",
"HHHHHHHHHHHHHHHHHHHHD:+$$#@&c*%x$4d#O%MGHHHHHHHHHHHHHHHHHHHHHHHH",
"HHHHHHHHHHHHHHHHHHHHD=.OOOo@x%+cyn#+O7DHHHHHHHHHHHHHHHHHHHHHHHHH",
"HHHHHHHHHHHHHHHHHHHHDr795880Bw8bzb$o8GHHHHHHHHHHHHHHHHHHHHHHHHHH",
"HHHHHHHHHHHHHHHHHHHHBhfgCkfgsfkc=l#6FHHHHHHHHHHHHHHHHHHHHHHHHHHH",
"HHHHHHHHHHHHHHHHHHHHD= Ox-.OOo$z>xqFHHHHHHHHHHHHHHHHHHHHHHHHHHHH",
"HHHHHHHHHHHHHHHHHHHHZ:O%x>+$#@*z*vGHHHHHHHHHHHHHHHHHHHHHHHHHHHHH",
"HHHHHHHHHHHHHHHHHHHHD= Oz=.OOX@ceMHHHHHHHHHHHHHHHHHHHHHHHHHHHHHH",
"HHHHHHHHHHHHHHHHHHHHNe58ve68779mGHHHHHHHHHHHHHHHHHHHHHHHHHHHHHHH",
"HHHHHHHHHHHHHHHHHHHHDGGGFGGGGGGDHHHHHHHHHHHHHHHHHHHHHHHHHHHHHHHH",
"HHHHHHHHHHHHHHHHHHHHHHHHHHHHHHHHHHHHHHHHHHHHHHHHHHHHHHHHHHHHHHHH",
"HHHHHHHHHHHHHHHHHHHHHHHHHHHHHHHHHHHHHHHHHHHHHHHHHHHHHHHHHHHHHHHH",
"HHHHHHHHHHHHHHHHHHHHHHHHHHHHHHHHHHHHHHHHHHHHHHHHHHHHHHHHHHHHHHHH"
};
